<svg width="28" height="14" viewBox="0 0 28 14" fill="none" xmlns="http://www.w3.org/2000/svg">
<path d="M14 14C13.2046 13.9993 12.4421 13.6828 11.88 13.12L0.559986 1.76001C0.371683 1.56905 0.266948 1.31111 0.268824 1.04293C0.270699 0.774757 0.37903 0.518309 0.569986 0.330006C0.760942 0.141702 1.01888 0.0369678 1.28706 0.0388431C1.55523 0.0407185 1.81168 0.14905 1.99999 0.340006L13.29 11.66C13.3829 11.7537 13.4936 11.8281 13.6154 11.8789C13.7373 11.9297 13.868 11.9558 14 11.9558C14.132 11.9558 14.2627 11.9297 14.3846 11.8789C14.5064 11.8281 14.617 11.7537 14.71 11.66L26 0.340006C26.1883 0.153028 26.4432 0.0485122 26.7085 0.0494499C26.9739 0.0503876 27.228 0.156702 27.415 0.345006C27.602 0.53331 27.7065 0.788177 27.7055 1.05354C27.7046 1.31891 27.5983 1.57303 27.41 1.76001L16.12 13.07C15.8458 13.3577 15.5172 13.5881 15.1533 13.7477C14.7894 13.9074 14.3973 13.9931 14 14V14Z" fill="#231F20"/>
</svg>
