<svg width="25" height="25" viewBox="0 0 25 25" fill="none" xmlns="http://www.w3.org/2000/svg">
<path d="M12.5008 0.00080097C5.59488 0.00080097 0 5.74143 0 12.8165C0 18.4818 3.58147 23.2837 8.54507 24.9778C9.17245 25.0987 9.39903 24.7022 9.39903 24.3594C9.39903 24.0551 9.39199 23.2501 9.38731 22.1816C5.90818 22.9537 5.17532 20.4587 5.17532 20.4587C4.60576 18.9816 3.78383 18.5852 3.78383 18.5852C2.65251 17.793 3.87368 17.8098 3.87368 17.8098C5.12688 17.8971 5.7863 19.1274 5.7863 19.1274C6.90121 21.0882 8.71148 20.5211 9.42793 20.1911C9.53732 19.3653 9.86312 18.7974 10.2178 18.481C7.44265 18.1598 4.5245 17.0585 4.5245 12.1477C4.5245 10.7452 5.00891 9.60296 5.80974 8.70586C5.67145 8.38467 5.24798 7.07907 5.9199 5.31371C5.9199 5.31371 6.96606 4.97169 9.35762 6.62812C10.3585 6.34377 11.421 6.20199 12.4828 6.19478C13.5454 6.20199 14.6072 6.34457 15.608 6.62812C17.9855 4.97169 19.0309 5.31371 19.0309 5.31371C19.702 7.07907 19.2785 8.38387 19.1567 8.70586C19.9497 9.60296 20.4341 10.746 20.4341 12.1477C20.4341 17.0697 17.512 18.155 14.7337 18.4682C15.1681 18.8519 15.5752 19.6408 15.5752 20.8383C15.5752 22.5524 15.5596 23.9333 15.5596 24.3506C15.5596 24.6838 15.7783 25.0843 16.4221 24.9554C21.4224 23.2789 25 18.473 25 12.8157C25 5.74063 19.4051 0 12.4992 0L12.5008 0.00080097Z" fill="black"/>
</svg>
