<svg width="50" height="34" viewBox="0 0 50 34" fill="none" xmlns="http://www.w3.org/2000/svg">
<path d="M43.8926 0H6.10739C2.73993 0 0 2.73993 0 6.10739V27.8369C0 31.2043 2.73993 33.9443 6.10739 33.9443H43.8926C47.2601 33.9443 50 31.2043 50 27.8369V6.10806C50.0007 2.73993 47.2607 0 43.8926 0ZM40.9083 3.98438L25 14.2335L9.09169 3.98438H40.9083ZM43.8926 29.9606H6.10739C4.93665 29.9606 3.98438 29.0076 3.98438 27.8375V6.22095L23.7708 18.9444C23.7974 18.961 23.8259 18.9723 23.8532 18.9876C23.8817 19.0035 23.9109 19.0188 23.9402 19.0334C24.0936 19.1124 24.2516 19.1762 24.413 19.218C24.4296 19.2226 24.4462 19.2246 24.4628 19.2286C24.6401 19.2705 24.8194 19.2964 24.9987 19.2964C24.9993 19.2964 25 19.2964 25 19.2964C25.0013 19.2964 25.002 19.2964 25.0027 19.2964C25.182 19.2964 25.3613 19.2711 25.5386 19.2286C25.5552 19.2246 25.5718 19.2226 25.5884 19.218C25.7497 19.1762 25.9071 19.1124 26.0612 19.0334C26.0904 19.0188 26.1196 19.0035 26.1482 18.9876C26.1754 18.9723 26.2039 18.961 26.2305 18.9444L46.0169 6.22095V27.8369C46.0163 29.0076 45.0634 29.9606 43.8926 29.9606Z" fill="black"/>
</svg>
