<svg width="25" height="25" viewBox="0 0 25 25" fill="none" xmlns="http://www.w3.org/2000/svg">
<path d="M12.5 0C5.59642 0 0 5.59642 0 12.5C0 19.4036 5.59642 25 12.5 25C19.4036 25 25 19.4036 25 12.5C25 5.59642 19.4036 0 12.5 0ZM7.81637 20.9632H4.3023V9.65678H7.81637V20.9632V20.9632ZM6.0601 8.11125C4.93376 8.11125 4.02199 7.19821 4.02199 6.0734C4.02225 4.94962 4.93376 4.03657 6.0601 4.03657C7.18338 4.03657 8.09642 4.94962 8.09642 6.0734C8.09642 7.19847 7.18312 8.11125 6.0601 8.11125ZM20.9777 20.9632H17.4665V15.4647C17.4665 14.1535 17.4422 12.467 15.6399 12.467C13.8123 12.467 13.5312 13.8951 13.5312 15.3698V20.9629H10.0202V9.65678H13.3905V11.2018H13.4379C13.9072 10.3128 15.0529 9.3757 16.7627 9.3757C20.321 9.3757 20.9777 11.7174 20.9777 14.7616V20.9632Z" fill="black"/>
</svg>
